<?xml version="1.0" standalone="no"?>
<!DOCTYPE svg PUBLIC "-//W3C//DTD SVG 20010904//EN"
 "http://www.w3.org/TR/2001/REC-SVG-20010904/DTD/svg10.dtd">
<svg version="1.0" xmlns="http://www.w3.org/2000/svg"
 width="438.000000pt" height="438.000000pt" viewBox="0 0 438.000000 438.000000"
 preserveAspectRatio="xMidYMid meet">
<metadata>
Created by potrace 1.14, written by Peter Selinger 2001-2017
</metadata>
<g transform="translate(0.000000,438.000000) scale(0.100000,-0.100000)"
fill="#000000" stroke="none">
<path d="M3255 4243 c-11 -14 -19 -30 -17 -35 1 -4 -3 -8 -9 -8 -5 0 -7 -4 -4
-10 3 -5 1 -10 -5 -10 -7 0 -10 -7 -6 -15 3 -8 1 -15 -4 -15 -4 0 -14 -16 -20
-35 -6 -19 -15 -35 -19 -35 -11 0 -41 -101 -34 -113 3 -6 2 -7 -4 -4 -6 4 -16
-12 -23 -36 -7 -23 -16 -44 -20 -47 -5 -3 -11 -17 -14 -30 -2 -14 -11 -44 -19
-67 -9 -22 -13 -44 -10 -47 4 -3 1 -6 -6 -6 -7 0 -11 -6 -8 -14 3 -8 3 -17 -1
-20 -3 -4 -7 -12 -8 -19 -1 -7 -9 -28 -18 -48 -8 -20 -12 -39 -9 -43 4 -3 0
-6 -7 -6 -7 0 -11 -3 -7 -6 3 -4 0 -19 -8 -34 -8 -15 -11 -30 -8 -34 4 -3 1
-6 -5 -6 -6 0 -26 14 -44 32 -18 17 -24 26 -13 19 11 -8 5 0 -13 18 -18 17
-29 31 -25 31 5 0 3 4 -2 8 -6 4 -22 23 -35 42 -14 19 -32 42 -40 51 -8 10
-30 33 -47 53 -18 19 -33 40 -33 45 0 5 -8 16 -19 23 -10 7 -20 18 -22 23 -2
6 -7 9 -12 7 -4 -1 -6 1 -5 5 3 9 -25 45 -67 87 -16 16 -23 26 -15 21 8 -5 3
4 -12 20 -16 15 -28 31 -28 36 0 4 -6 14 -13 21 -18 19 -48 67 -45 73 2 2 -7
12 -20 20 -24 17 -72 17 -74 0 0 -5 -7 -32 -16 -60 -8 -27 -15 -58 -14 -67 0
-10 -3 -18 -9 -18 -5 0 -9 -9 -9 -20 0 -11 -14 -73 -31 -138 -17 -64 -31 -126
-32 -137 0 -11 -4 -24 -7 -30 -4 -5 -11 -28 -15 -50 -9 -45 -12 -54 -15 -57
-1 -2 -3 -10 -5 -18 -9 -42 -15 -69 -26 -110 -6 -25 -12 -51 -12 -57 0 -7 -7
-13 -14 -13 -8 0 -11 5 -8 10 3 6 1 10 -5 10 -6 0 -8 5 -5 10 3 6 1 10 -5 10
-6 0 -8 5 -5 10 3 6 1 10 -6 10 -7 0 -9 3 -6 7 4 3 -1 15 -10 26 -10 10 -17
20 -16 21 7 4 -11 46 -19 46 -5 0 -7 4 -3 9 3 6 -1 13 -9 18 -8 4 -15 11 -16
15 -8 35 -14 47 -26 52 -8 3 -14 10 -14 16 0 6 -8 23 -18 38 -72 106 -87 127
-94 130 -4 2 -8 10 -8 18 0 8 -5 14 -12 14 -6 0 -8 3 -5 7 4 3 -5 17 -19 30
-14 12 -21 23 -17 23 4 0 -1 7 -11 15 -11 8 -16 15 -11 15 5 0 -2 11 -15 25
-12 13 -27 22 -32 19 -5 -3 -8 -2 -7 3 3 20 -3 33 -33 63 -18 18 -26 30 -18
26 8 -4 5 1 -7 12 -12 11 -20 21 -18 23 2 3 -5 15 -17 29 -11 14 -16 19 -12
11 5 -9 3 -12 -4 -7 -7 4 -12 12 -12 17 0 5 -12 22 -26 37 -15 15 -23 20 -20
12 7 -13 6 -13 -6 0 -7 9 -19 15 -25 14 -7 -1 -21 -2 -32 -3 -25 -1 -39 -41
-46 -131 -7 -96 -16 -187 -30 -295 -4 -33 -9 -71 -10 -85 -2 -14 -6 -44 -9
-67 -15 -111 -24 -175 -30 -228 -2 -16 -7 -46 -10 -65 -10 -57 -16 -101 -22
-165 -5 -57 -32 -206 -38 -212 -11 -11 -58 21 -72 49 -9 18 -23 40 -30 48 -7
8 -22 25 -32 36 -11 12 -28 35 -38 53 -10 17 -21 31 -25 31 -4 0 -12 14 -19
30 -7 17 -16 30 -21 30 -5 0 -9 6 -9 14 0 8 -6 21 -13 28 -7 7 -28 40 -47 73
-18 33 -38 63 -43 66 -5 3 -8 9 -8 13 2 13 -30 66 -40 66 -6 0 -8 4 -5 9 10
16 -33 43 -79 48 -42 5 -45 4 -46 -18 0 -13 -2 -53 -4 -89 -2 -36 -7 -112 -10
-170 -3 -58 -7 -123 -9 -145 -2 -22 -6 -78 -10 -125 -4 -47 -9 -96 -11 -110
-3 -14 -8 -36 -10 -50 -3 -14 -8 -40 -11 -59 -9 -52 -16 -85 -33 -138 -5 -17
-6 -35 -3 -38 12 -13 -43 7 -59 21 -8 8 -21 14 -28 14 -7 0 -10 4 -6 9 3 5 -4
12 -15 16 -11 3 -20 11 -20 16 0 5 -5 9 -11 9 -7 0 -18 8 -26 18 -9 10 -12 11
-7 2 4 -8 -10 3 -30 25 -21 22 -34 33 -31 25 4 -8 -5 0 -20 18 -14 17 -33 32
-41 32 -8 0 -14 5 -14 10 0 6 -6 10 -13 10 -7 0 -19 9 -27 20 -8 11 -20 20
-28 20 -7 0 -10 5 -7 10 3 6 -1 10 -9 10 -8 0 -20 8 -25 18 -6 9 -11 13 -11 9
0 -4 -10 1 -22 12 -11 11 -25 18 -30 15 -4 -3 -8 -1 -8 4 0 10 -60 38 -72 34
-5 -1 -8 3 -8 9 0 5 -4 8 -9 5 -5 -4 -11 0 -14 6 -3 8 -20 -4 -45 -31 -23 -24
-39 -48 -36 -52 3 -5 0 -9 -7 -9 -7 0 -10 -3 -6 -6 3 -4 -1 -13 -9 -21 -14
-14 -14 -97 2 -218 2 -22 7 -59 9 -81 5 -55 15 -133 21 -164 2 -14 6 -45 10
-70 3 -25 7 -56 10 -70 2 -14 6 -41 9 -60 3 -19 7 -46 10 -60 9 -45 15 -76 19
-114 3 -20 7 -40 10 -44 3 -5 7 -30 11 -56 3 -27 7 -51 9 -55 4 -6 14 -58 20
-106 2 -11 6 -33 10 -50 3 -16 9 -41 12 -55 3 -14 7 -34 9 -45 11 -46 16 -72
21 -105 3 -19 8 -38 10 -41 2 -3 6 -21 9 -40 9 -45 13 -64 15 -64 1 0 3 -12 5
-27 6 -44 37 -148 45 -148 4 0 7 -6 8 -12 0 -7 10 -40 21 -73 28 -82 59 -184
66 -220 10 -48 10 -49 19 -63 4 -7 5 -16 2 -19 -3 -3 1 -18 10 -34 8 -16 14
-31 13 -34 -1 -9 13 -70 19 -80 4 -5 7 -17 9 -25 4 -33 27 -90 35 -90 5 0 7
-4 3 -9 -3 -6 3 -25 14 -44 11 -19 17 -38 14 -41 -4 -3 -1 -6 6 -6 7 0 9 -5 6
-10 -3 -6 1 -13 9 -16 9 -3 13 -10 10 -15 -3 -5 0 -9 7 -9 7 0 9 -3 6 -6 -8
-8 30 -64 55 -82 10 -7 18 -19 18 -25 0 -12 37 -47 118 -112 17 -15 32 -23 32
-19 0 4 7 -1 16 -12 8 -10 13 -12 9 -4 -4 9 0 7 9 -4 8 -10 19 -15 24 -12 6 3
12 2 14 -4 1 -5 12 -11 23 -13 11 -2 29 -8 40 -13 39 -17 450 -8 538 12 12 3
38 7 57 9 19 2 50 6 68 9 17 3 46 8 63 11 17 2 40 7 51 11 11 3 30 8 41 9 57
9 122 22 122 25 0 2 34 10 60 14 11 2 20 4 20 5 0 2 15 7 48 14 6 1 17 5 22 9
8 5 65 20 85 23 3 0 19 6 35 12 25 10 57 20 125 38 48 13 100 32 118 43 12 8
22 11 22 8 0 -4 13 0 29 8 16 9 31 12 35 9 3 -4 6 0 6 7 0 7 3 11 6 7 4 -3 19
0 34 8 15 8 30 11 34 8 3 -4 6 -1 6 6 0 7 6 11 12 9 7 -3 41 8 75 24 34 15 69
28 78 28 8 0 15 4 15 10 0 5 3 9 8 8 13 -4 82 26 82 35 0 4 4 6 9 2 5 -3 12
-1 15 4 5 8 63 25 79 22 4 0 7 4 7 11 0 6 3 8 7 5 3 -4 13 -1 21 5 8 7 19 13
26 14 6 1 29 10 51 19 22 10 43 17 48 17 4 -1 7 2 7 8 0 5 7 7 15 4 8 -4 15
-1 15 5 0 6 9 11 19 11 11 0 27 7 35 16 9 8 16 13 16 9 0 -3 15 2 33 12 17 9
37 18 44 19 7 1 67 24 135 50 68 27 125 49 128 50 9 2 71 27 143 57 20 9 39
17 42 17 3 0 20 7 38 17 17 9 34 18 37 19 3 1 15 5 28 9 12 4 22 11 22 16 0 5
3 8 8 7 11 -4 72 26 72 35 0 5 5 5 10 2 6 -3 10 -1 10 5 0 6 4 9 9 6 5 -3 12
1 15 10 3 8 10 13 15 10 4 -3 21 8 37 24 16 16 35 30 42 30 6 0 12 5 12 11 0
5 5 7 10 4 6 -3 10 2 10 11 0 10 3 15 6 11 3 -3 13 0 21 6 30 24 122 117 115
117 -3 0 4 7 16 16 12 8 20 19 17 24 -3 5 1 12 8 17 7 4 24 26 38 48 60 99 73
159 44 214 -8 16 -11 31 -8 35 4 3 1 6 -6 6 -7 0 -10 4 -6 9 3 6 -3 14 -12 20
-10 6 -14 11 -10 11 5 0 -1 14 -13 30 -12 17 -26 28 -31 25 -5 -4 -6 1 -3 9 3
9 2 16 -4 16 -6 0 -13 19 -17 42 -4 24 -14 61 -22 83 -8 22 -16 49 -19 60 -3
19 -15 53 -34 100 -16 40 -35 90 -36 95 -5 28 -18 60 -23 60 -4 0 -8 6 -8 14
0 8 -8 31 -18 52 -11 22 -20 47 -22 56 -1 9 -13 41 -27 70 -13 29 -27 64 -31
78 -4 14 -15 39 -23 55 -9 17 -17 36 -18 44 -2 8 -6 17 -11 20 -4 3 -10 15
-11 26 -2 11 -9 23 -15 27 -7 4 -8 8 -4 8 4 0 2 10 -5 23 -7 12 -11 25 -10 30
1 4 -2 7 -6 7 -4 0 -8 10 -9 22 -1 11 -8 25 -15 29 -7 5 -9 9 -4 9 5 0 3 7 -4
15 -7 8 -9 15 -6 15 4 0 -2 14 -14 30 -12 17 -19 30 -15 30 3 0 0 10 -7 23 -7
12 -11 25 -10 30 1 4 -2 7 -6 7 -4 0 -9 10 -9 22 -1 13 -7 24 -12 26 -5 2 -7
10 -4 18 3 8 0 14 -7 14 -6 0 -8 5 -5 10 3 6 1 10 -4 10 -6 0 -10 3 -9 8 3 15
-15 62 -24 62 -5 0 -7 3 -5 8 3 4 -4 25 -15 47 -11 22 -22 51 -24 65 -3 13 -8
27 -12 30 -4 3 -8 10 -9 15 -5 27 -39 111 -48 117 -5 4 -6 8 -1 8 5 0 3 7 -4
15 -7 8 -10 15 -7 15 3 0 -5 27 -18 59 -13 33 -20 62 -17 65 3 3 0 6 -7 6 -7
0 -10 4 -6 9 3 5 1 12 -4 15 -5 4 -12 25 -16 48 -4 23 -11 49 -15 58 -5 8 -14
35 -20 60 -7 25 -15 52 -18 60 -7 19 -6 17 -17 65 -4 22 -9 45 -10 50 -2 6 -8
30 -15 55 -7 25 -14 54 -15 65 -1 11 -3 20 -4 20 -1 0 -4 11 -6 25 -9 54 -12
62 -23 69 -6 3 -25 40 -42 80 -18 41 -38 80 -45 88 -21 21 -48 15 -70 -14z"/>
</g>
</svg>
